<?xml version="1.0" encoding="utf-8"?>
<!-- Generator: Adobe Illustrator 28.3.0, SVG Export Plug-In . SVG Version: 6.00 Build 0)  -->
<svg version="1.1" id="Layer_1" xmlns="http://www.w3.org/2000/svg" xmlns:xlink="http://www.w3.org/1999/xlink" x="0px" y="0px"
	 viewBox="0 0 128 128" width="16px" height="16px" xml:space="preserve">
<g>
	<path id="sig4" d="M109.6,114h-8c-3.3,0-6-2.7-6-6v-3c0-3.3,2.7-6,6-6h8c3.3,0,6,2.7,6,6v3C115.6,111.3,112.9,114,109.6,114z" fill="rgba(0,0,0,64)"/>
	<path id="sig3" d="M80.9,114h-8c-3.3,0-6-2.7-6-6v-3c0-3.3,2.7-6,6-6h8c3.3,0,6,2.7,6,6v3C86.9,111.3,84.2,114,80.9,114z"     fill="rgba(0,0,0,64)"/>
	<path id="sig2" d="M53.3,114h-8c-3.3,0-6-2.7-6-6v-3c0-3.3,2.7-6,6-6h8c3.3,0,6,2.7,6,6v3C59.3,111.3,56.6,114,53.3,114z"	   fill="rgba(0,0,0,64)"/>
	<path id="sig1" d="M26.4,114h-8c-3.3,0-6-2.7-6-6v-3c0-3.3,2.7-6,6-6h8c3.3,0,6,2.7,6,6v3C32.4,111.3,29.7,114,26.4,114z"     fill="rgba(0,0,0,255)"/>
</g>
</svg>
