<svg class="svg-icon" style="width: 1em; height: 1em;vertical-align: middle;fill: currentColor;overflow: hidden;" viewBox="0 0 1024 1024" version="1.1" xmlns="http://www.w3.org/2000/svg" width="1024" height="1024">
	<path fill="#fff" d="M816.8 103.6c-5.2-5-12.2-7.6-19.4-7.6-7.4 0-14.4 2.8-19.8 7.8-5.4 5.2-8.2 12-8.2 19.2 0 7.2 3 14 8.4 19.2 60.8 57 94.2 133 94.2 214.2 0 81-33.4 157-94.2 214.2-5.4 5-8.4 11.8-8.4 19.2 0 7.2 2.8 14 8.2 19.2 5.2 5 12.2 7.8 19.8 7.8 7.4 0 14.2-2.8 19.4-7.6C888.6 542 928 452.2 928 356.4v-0.2c0-95.8-39.6-185.4-111.2-252.6z"  />
	<path fill="#fff" d="M702 193.6c-4.8-4.6-11.2-7-18-7-6.6 0-13 2.4-17.8 6.8-5 4.6-7.8 10.8-7.8 17.4 0 6.6 2.6 12.8 7.6 17.4 36 34 55.6 79.6 55.6 128 0 48.4-19.8 94-55.6 128-5 4.6-7.6 10.8-7.6 17.4 0 6.6 2.8 12.8 7.8 17.4 4.8 4.4 11 6.8 17.8 6.8 6.8 0 13.2-2.6 18-7 45.6-43.4 70.8-101 70.8-162.6v-0.2c0-61.4-25.2-119-70.8-162.4zM246.2 142.2c5.4-5 8.4-11.8 8.4-19.2 0-7.2-2.8-14-8.2-19.2-5.2-5-12.2-7.8-19.8-7.8-7.4 0-14.2 2.8-19.4 7.6C135.4 170.8 96 260.6 96 356.4v0.4c0 95.6 39.6 185.2 111.2 252.4 5.2 5 12.2 7.6 19.4 7.6 7.4 0 14.4-2.8 19.8-7.8 5.4-5.2 8.2-12 8.2-19.2 0-7.2-3-14-8.4-19.2C185.4 513.6 152 437.6 152 356.4c-0.2-81.2 33.4-157.2 94.2-214.2z"  />
	<path fill="#fff" d="M358 228.2c5-4.6 7.6-10.8 7.6-17.4 0-6.6-2.8-12.8-7.8-17.4-4.8-4.4-11-6.8-17.8-6.8-6.8 0-13.2 2.6-18 7-45.6 43.4-70.8 101-70.8 162.6v0.2c0 61.6 25.2 119.2 70.8 162.4 4.8 4.6 11.2 7 18 7 6.6 0 13-2.4 17.8-6.8 5-4.6 7.8-10.8 7.8-17.4 0-6.6-2.6-12.8-7.6-17.4-36-34-55.6-79.6-55.6-128-0.2-48.4 19.6-93.8 55.6-128z m154 18.2c-53 0-96 43-96 96 0 43.2 28.6 79.8 68 91.8v466c0 15.4 12.6 27.8 28 27.8s28-12.4 28-27.8v-466c39.4-12 68-48.6 68-91.8 0-53-43-96-96-96z"  /></svg>